<mxfile host="app.diagrams.net" agent="Mozilla/5.0 (X11; Linux x86_64) AppleWebKit/537.36 (KHTML, like Gecko) Chrome/123.0.0.0 Safari/537.36" version="24.7.7">
  <diagram name="Page-1" id="FoErnBP0bsuoqeBmM7qJ">
    <mxGraphModel dx="1434" dy="786" grid="1" gridSize="10" guides="1" tooltips="1" connect="1" arrows="1" fold="1" page="1" pageScale="1" pageWidth="827" pageHeight="1169" math="0" shadow="0">
      <root>
        <mxCell id="0" />
        <mxCell id="1" parent="0" />
        <mxCell id="bOdxVoqwb2bXN5GkgqzS-1" value="prod" style="ellipse;whiteSpace=wrap;html=1;aspect=fixed;fillColor=#FAE5C7;strokeColor=#0F8B8D;labelBackgroundColor=none;fontColor=#143642;" vertex="1" parent="1">
          <mxGeometry x="40" y="120" width="80" height="80" as="geometry" />
        </mxCell>
        <mxCell id="bOdxVoqwb2bXN5GkgqzS-2" value="stage" style="ellipse;whiteSpace=wrap;html=1;aspect=fixed;fillColor=#FAE5C7;strokeColor=#0F8B8D;labelBackgroundColor=none;fontColor=#143642;" vertex="1" parent="1">
          <mxGeometry x="40" y="280" width="80" height="80" as="geometry" />
        </mxCell>
        <mxCell id="bOdxVoqwb2bXN5GkgqzS-3" value="dev" style="ellipse;whiteSpace=wrap;html=1;aspect=fixed;fillColor=#FAE5C7;strokeColor=#0F8B8D;labelBackgroundColor=none;fontColor=#143642;" vertex="1" parent="1">
          <mxGeometry x="40" y="440" width="80" height="80" as="geometry" />
        </mxCell>
        <mxCell id="bOdxVoqwb2bXN5GkgqzS-7" value="" style="edgeStyle=orthogonalEdgeStyle;rounded=0;orthogonalLoop=1;jettySize=auto;html=1;labelBackgroundColor=none;strokeColor=#A8201A;fontColor=default;" edge="1" parent="1" source="bOdxVoqwb2bXN5GkgqzS-4" target="bOdxVoqwb2bXN5GkgqzS-6">
          <mxGeometry relative="1" as="geometry" />
        </mxCell>
        <mxCell id="bOdxVoqwb2bXN5GkgqzS-9" value="" style="edgeStyle=orthogonalEdgeStyle;rounded=0;orthogonalLoop=1;jettySize=auto;html=1;labelBackgroundColor=none;strokeColor=#A8201A;fontColor=default;" edge="1" parent="1" source="bOdxVoqwb2bXN5GkgqzS-4" target="bOdxVoqwb2bXN5GkgqzS-8">
          <mxGeometry relative="1" as="geometry" />
        </mxCell>
        <mxCell id="bOdxVoqwb2bXN5GkgqzS-4" value="Earth-A001" style="ellipse;whiteSpace=wrap;html=1;labelBackgroundColor=none;fillColor=#FAE5C7;strokeColor=#0F8B8D;fontColor=#143642;" vertex="1" parent="1">
          <mxGeometry x="200" y="280" width="80" height="80" as="geometry" />
        </mxCell>
        <mxCell id="bOdxVoqwb2bXN5GkgqzS-6" value="Earth-A001--dev&lt;span style=&quot;background-color: initial;&quot;&gt;Conflicts&lt;/span&gt;" style="ellipse;whiteSpace=wrap;html=1;labelBackgroundColor=none;fillColor=#FAE5C7;strokeColor=#0F8B8D;fontColor=#143642;" vertex="1" parent="1">
          <mxGeometry x="200" y="440" width="80" height="80" as="geometry" />
        </mxCell>
        <mxCell id="bOdxVoqwb2bXN5GkgqzS-16" value="" style="edgeStyle=orthogonalEdgeStyle;rounded=0;orthogonalLoop=1;jettySize=auto;html=1;labelBackgroundColor=none;strokeColor=#A8201A;fontColor=default;" edge="1" parent="1" source="bOdxVoqwb2bXN5GkgqzS-8" target="bOdxVoqwb2bXN5GkgqzS-11">
          <mxGeometry relative="1" as="geometry" />
        </mxCell>
        <mxCell id="bOdxVoqwb2bXN5GkgqzS-23" value="" style="edgeStyle=orthogonalEdgeStyle;rounded=0;orthogonalLoop=1;jettySize=auto;html=1;labelBackgroundColor=none;strokeColor=#A8201A;fontColor=default;" edge="1" parent="1" source="bOdxVoqwb2bXN5GkgqzS-8" target="bOdxVoqwb2bXN5GkgqzS-22">
          <mxGeometry relative="1" as="geometry" />
        </mxCell>
        <mxCell id="bOdxVoqwb2bXN5GkgqzS-8" value="Earth-A001--testing" style="ellipse;whiteSpace=wrap;html=1;labelBackgroundColor=none;fillColor=#FAE5C7;strokeColor=#0F8B8D;fontColor=#143642;" vertex="1" parent="1">
          <mxGeometry x="360" y="280" width="80" height="80" as="geometry" />
        </mxCell>
        <mxCell id="bOdxVoqwb2bXN5GkgqzS-27" value="" style="edgeStyle=orthogonalEdgeStyle;rounded=0;orthogonalLoop=1;jettySize=auto;html=1;labelBackgroundColor=none;strokeColor=#A8201A;fontColor=default;" edge="1" parent="1" source="bOdxVoqwb2bXN5GkgqzS-11" target="bOdxVoqwb2bXN5GkgqzS-26">
          <mxGeometry relative="1" as="geometry" />
        </mxCell>
        <mxCell id="bOdxVoqwb2bXN5GkgqzS-11" value="stageTesting" style="ellipse;whiteSpace=wrap;html=1;labelBackgroundColor=none;fillColor=#F5D3A3;strokeColor=#0F8B8D;fontColor=#143642;" vertex="1" parent="1">
          <mxGeometry x="520" y="280" width="80" height="80" as="geometry" />
        </mxCell>
        <mxCell id="bOdxVoqwb2bXN5GkgqzS-14" value="" style="endArrow=classic;startArrow=classic;html=1;rounded=0;entryX=0;entryY=0.5;entryDx=0;entryDy=0;labelBackgroundColor=none;strokeColor=#A8201A;fontColor=default;" edge="1" parent="1" target="bOdxVoqwb2bXN5GkgqzS-4">
          <mxGeometry width="50" height="50" relative="1" as="geometry">
            <mxPoint x="120" y="320" as="sourcePoint" />
            <mxPoint x="170" y="270" as="targetPoint" />
          </mxGeometry>
        </mxCell>
        <mxCell id="bOdxVoqwb2bXN5GkgqzS-15" value="" style="endArrow=classic;startArrow=classic;html=1;rounded=0;entryX=0;entryY=0.5;entryDx=0;entryDy=0;labelBackgroundColor=none;strokeColor=#A8201A;fontColor=default;" edge="1" parent="1">
          <mxGeometry width="50" height="50" relative="1" as="geometry">
            <mxPoint x="440" y="319.5" as="sourcePoint" />
            <mxPoint x="520" y="319.5" as="targetPoint" />
          </mxGeometry>
        </mxCell>
        <mxCell id="bOdxVoqwb2bXN5GkgqzS-17" value="" style="endArrow=classic;startArrow=classic;html=1;rounded=0;entryX=0;entryY=0.5;entryDx=0;entryDy=0;labelBackgroundColor=none;strokeColor=#A8201A;fontColor=default;" edge="1" parent="1">
          <mxGeometry width="50" height="50" relative="1" as="geometry">
            <mxPoint x="120" y="479.5" as="sourcePoint" />
            <mxPoint x="200" y="479.5" as="targetPoint" />
          </mxGeometry>
        </mxCell>
        <mxCell id="bOdxVoqwb2bXN5GkgqzS-18" value="dev&lt;span style=&quot;background-color: initial;&quot;&gt;Testing&lt;/span&gt;" style="ellipse;whiteSpace=wrap;html=1;labelBackgroundColor=none;fillColor=#F5D3A3;strokeColor=#0F8B8D;fontColor=#143642;" vertex="1" parent="1">
          <mxGeometry x="520" y="440" width="80" height="80" as="geometry" />
        </mxCell>
        <mxCell id="bOdxVoqwb2bXN5GkgqzS-20" value="" style="endArrow=classic;html=1;rounded=0;entryX=0;entryY=0;entryDx=0;entryDy=0;labelBackgroundColor=none;strokeColor=#A8201A;fontColor=default;" edge="1" parent="1" source="bOdxVoqwb2bXN5GkgqzS-8" target="bOdxVoqwb2bXN5GkgqzS-18">
          <mxGeometry width="50" height="50" relative="1" as="geometry">
            <mxPoint x="390" y="430" as="sourcePoint" />
            <mxPoint x="440" y="380" as="targetPoint" />
          </mxGeometry>
        </mxCell>
        <mxCell id="bOdxVoqwb2bXN5GkgqzS-21" value="" style="curved=1;endArrow=classic;html=1;rounded=0;exitX=1;exitY=0;exitDx=0;exitDy=0;labelBackgroundColor=none;strokeColor=#A8201A;fontColor=default;" edge="1" parent="1" source="bOdxVoqwb2bXN5GkgqzS-2" target="bOdxVoqwb2bXN5GkgqzS-11">
          <mxGeometry width="50" height="50" relative="1" as="geometry">
            <mxPoint x="130" y="270" as="sourcePoint" />
            <mxPoint x="480" y="230" as="targetPoint" />
            <Array as="points">
              <mxPoint x="140" y="270" />
              <mxPoint x="210" y="250" />
              <mxPoint x="480" y="240" />
            </Array>
          </mxGeometry>
        </mxCell>
        <mxCell id="bOdxVoqwb2bXN5GkgqzS-22" value="Earth-A001-testingConflicts" style="ellipse;whiteSpace=wrap;html=1;labelBackgroundColor=none;fillColor=#FAE5C7;strokeColor=#0F8B8D;fontColor=#143642;" vertex="1" parent="1">
          <mxGeometry x="360" y="440" width="80" height="80" as="geometry" />
        </mxCell>
        <mxCell id="bOdxVoqwb2bXN5GkgqzS-24" value="" style="edgeStyle=orthogonalEdgeStyle;rounded=0;orthogonalLoop=1;jettySize=auto;html=1;labelBackgroundColor=none;strokeColor=#A8201A;fontColor=default;" edge="1" parent="1">
          <mxGeometry relative="1" as="geometry">
            <mxPoint x="440" y="479.5" as="sourcePoint" />
            <mxPoint x="520" y="479.5" as="targetPoint" />
          </mxGeometry>
        </mxCell>
        <mxCell id="bOdxVoqwb2bXN5GkgqzS-25" value="" style="endArrow=classic;html=1;rounded=0;exitX=0.5;exitY=0;exitDx=0;exitDy=0;entryX=0.5;entryY=1;entryDx=0;entryDy=0;labelBackgroundColor=none;strokeColor=#A8201A;fontColor=default;" edge="1" parent="1" source="bOdxVoqwb2bXN5GkgqzS-2" target="bOdxVoqwb2bXN5GkgqzS-1">
          <mxGeometry width="50" height="50" relative="1" as="geometry">
            <mxPoint x="70" y="260" as="sourcePoint" />
            <mxPoint x="120" y="210" as="targetPoint" />
          </mxGeometry>
        </mxCell>
        <mxCell id="bOdxVoqwb2bXN5GkgqzS-26" value="prod&lt;span style=&quot;background-color: initial;&quot;&gt;Testing&lt;/span&gt;" style="ellipse;whiteSpace=wrap;html=1;labelBackgroundColor=none;fillColor=#f5d3a3;strokeColor=#0F8B8D;fontColor=#143642;fillStyle=auto;" vertex="1" parent="1">
          <mxGeometry x="520" y="120" width="80" height="80" as="geometry" />
        </mxCell>
        <mxCell id="bOdxVoqwb2bXN5GkgqzS-28" value="" style="endArrow=classic;html=1;rounded=0;exitX=1;exitY=0.5;exitDx=0;exitDy=0;entryX=0;entryY=0.5;entryDx=0;entryDy=0;labelBackgroundColor=none;strokeColor=#A8201A;fontColor=default;" edge="1" parent="1" source="bOdxVoqwb2bXN5GkgqzS-1" target="bOdxVoqwb2bXN5GkgqzS-26">
          <mxGeometry width="50" height="50" relative="1" as="geometry">
            <mxPoint x="170" y="150" as="sourcePoint" />
            <mxPoint x="220" y="100" as="targetPoint" />
          </mxGeometry>
        </mxCell>
      </root>
    </mxGraphModel>
  </diagram>
</mxfile>
